<?xml version="1.0" encoding="UTF-8"?>
<svg xmlns="http://www.w3.org/2000/svg" width="1080" height="1920" viewBox="0 0 1080 1920">
  <defs>
    <linearGradient id="paper-0" x1="0" y1="0" x2="1" y2="1">
      <stop offset="0" stop-color="#fff5dc"/>
      <stop offset=".54" stop-color="#fffdf5"/>
      <stop offset="1" stop-color="#ffe0a8"/>
    </linearGradient>
    <filter id="grain-0" x="-10%" y="-10%" width="120%" height="120%">
      <feTurbulence type="fractalNoise" baseFrequency=".82" numOctaves="3" stitchTiles="stitch"/>
      <feColorMatrix type="saturate" values="0"/>
      <feComponentTransfer><feFuncA type="table" tableValues="0 .045"/></feComponentTransfer>
    </filter>
  </defs>
  <rect width="1080" height="1920" fill="url(#paper-0)"/>
  <rect width="1080" height="1920" filter="url(#grain-0)" opacity=".55"/>
  <ellipse cx="540" cy="820" rx="430" ry="690" fill="#fffdf7" opacity=".42"/>
  <path d="M-80 1680 C130 1510 260 1760 420 1600 C560 1460 685 1660 850 1535 C960 1450 1040 1500 1160 1410 L1160 1980 L-80 1980 Z" fill="#ffe0a8" opacity=".42"/>
  <path d="M-90 65 C110 180 245 28 405 130 C560 228 700 78 860 142 C990 194 1060 108 1160 160 L1160 -80 L-90 -80 Z" fill="#ffe0a8" opacity=".34"/>
  
  <g transform="translate(72 1460) rotate(-4) scale(1.05)" opacity=".74">
    <path d="M0 44c0-25 10-42 32-52l12 18c-12 6-19 14-21 24h25v42H0z" fill="#e85d3f"/>
    <path d="M64 44c0-25 10-42 32-52l12 18c-12 6-19 14-21 24h25v42H64z" fill="#e85d3f"/>
  </g>
  <g transform="translate(875 114) rotate(6) scale(0.72)" opacity=".74">
    <path d="M0 44c0-25 10-42 32-52l12 18c-12 6-19 14-21 24h25v42H0z" fill="#51aeb8"/>
    <path d="M64 44c0-25 10-42 32-52l12 18c-12 6-19 14-21 24h25v42H64z" fill="#51aeb8"/>
  </g>
  <circle cx="91.5" cy="1782.9" r="13.4" fill="#f6b51c" opacity="0.41"/>
<circle cx="108.4" cy="183.7" r="12.8" fill="#e85d3f" opacity="0.37"/>
<circle cx="116.8" cy="292.7" r="16.6" fill="#51aeb8" opacity="0.62"/>
<circle cx="1012.8" cy="1556.0" r="10.0" fill="#252525" opacity="0.35"/>
<circle cx="58.7" cy="301.9" r="13.6" fill="#f6b51c" opacity="0.41"/>
<circle cx="201.4" cy="1572.7" r="6.6" fill="#e85d3f" opacity="0.53"/>
<circle cx="925.4" cy="1525.5" r="15.4" fill="#51aeb8" opacity="0.42"/>
<circle cx="963.3" cy="1612.1" r="13.5" fill="#252525" opacity="0.48"/>
<circle cx="97.1" cy="89.9" r="6.3" fill="#f6b51c" opacity="0.30"/>
<circle cx="153.7" cy="1678.2" r="16.3" fill="#e85d3f" opacity="0.60"/>
<circle cx="116.8" cy="143.8" r="6.1" fill="#51aeb8" opacity="0.57"/>
<circle cx="1039.6" cy="1514.0" r="5.5" fill="#252525" opacity="0.42"/>
<circle cx="87.6" cy="1627.8" r="8.9" fill="#f6b51c" opacity="0.39"/>
<circle cx="32.5" cy="60.7" r="8.0" fill="#e85d3f" opacity="0.41"/>
<circle cx="872.3" cy="1521.2" r="11.8" fill="#51aeb8" opacity="0.55"/>
<circle cx="1017.2" cy="1632.2" r="16.2" fill="#252525" opacity="0.46"/>
<circle cx="896.0" cy="296.7" r="13.4" fill="#f6b51c" opacity="0.45"/>
<circle cx="952.7" cy="1545.4" r="12.0" fill="#e85d3f" opacity="0.51"/>
<circle cx="969.9" cy="1534.4" r="8.0" fill="#51aeb8" opacity="0.38"/>
<circle cx="67.8" cy="140.5" r="12.6" fill="#252525" opacity="0.60"/>
<circle cx="927.2" cy="1794.0" r="15.3" fill="#f6b51c" opacity="0.46"/>
<circle cx="112.5" cy="298.8" r="10.8" fill="#e85d3f" opacity="0.39"/>
<circle cx="72.2" cy="1608.0" r="11.1" fill="#51aeb8" opacity="0.57"/>
<circle cx="1028.1" cy="221.3" r="11.7" fill="#252525" opacity="0.55"/>
<circle cx="47.3" cy="184.2" r="14.3" fill="#f6b51c" opacity="0.32"/>
<circle cx="868.1" cy="1756.1" r="5.6" fill="#e85d3f" opacity="0.59"/>
<circle cx="36.6" cy="226.5" r="15.3" fill="#51aeb8" opacity="0.30"/>
<circle cx="1023.9" cy="1686.9" r="7.0" fill="#252525" opacity="0.36"/>
<circle cx="998.5" cy="278.8" r="16.8" fill="#f6b51c" opacity="0.33"/>
<circle cx="68.2" cy="234.3" r="13.1" fill="#e85d3f" opacity="0.54"/>
<circle cx="881.5" cy="216.7" r="16.7" fill="#51aeb8" opacity="0.59"/>
<circle cx="199.1" cy="1728.3" r="11.0" fill="#252525" opacity="0.58"/>
<circle cx="953.2" cy="260.8" r="12.9" fill="#f6b51c" opacity="0.33"/>
<circle cx="155.4" cy="1757.9" r="12.4" fill="#e85d3f" opacity="0.33"/>
<circle cx="969.6" cy="205.6" r="5.4" fill="#51aeb8" opacity="0.43"/>
<circle cx="882.3" cy="1732.5" r="15.2" fill="#252525" opacity="0.62"/>
<circle cx="1037.8" cy="1609.5" r="8.4" fill="#f6b51c" opacity="0.51"/>
<circle cx="965.7" cy="1680.8" r="16.0" fill="#e85d3f" opacity="0.39"/>
<circle cx="1033.7" cy="129.5" r="15.3" fill="#51aeb8" opacity="0.59"/>
<circle cx="864.8" cy="102.3" r="11.0" fill="#252525" opacity="0.37"/>
<circle cx="879.7" cy="106.8" r="5.0" fill="#f6b51c" opacity="0.41"/>
<circle cx="137.9" cy="1711.3" r="14.2" fill="#e85d3f" opacity="0.28"/>
  
  <g transform="translate(1050 205) rotate(10)">
    <circle r="160" fill="#f6b51c" stroke="rgba(122,76,18,.22)" stroke-width="5.6000000000000005"/>
    <ellipse cx="-44.800000000000004" cy="-22.400000000000002" rx="16" ry="7.199999999999999" fill="#221913" transform="rotate(-18 -44.800000000000004 -22.400000000000002)"/>
    <ellipse cx="38.4" cy="-24" rx="16" ry="7.199999999999999" fill="#221913" transform="rotate(18 38.4 -24)"/>
    <path d="M -73.60000000000001 20.8 Q 0 92.8 76.8 17.6" fill="none" stroke="#221913" stroke-width="16.8" stroke-linecap="round"/>
    <path d="M -48 28.799999999999997 Q 0 60.8 49.6 27.200000000000003" fill="none" stroke="#fff7e8" stroke-width="6.4" stroke-linecap="round" opacity=".92"/>
    <circle cx="-83.2" cy="8" r="12" fill="#e85d3f" opacity=".32"/>
    <circle cx="80" cy="6.4" r="12" fill="#e85d3f" opacity=".32"/>
  </g>
  
  <g transform="translate(62 1604) rotate(-14)">
    <circle r="118" fill="#f6b51c" stroke="rgba(122,76,18,.22)" stroke-width="4.130000000000001"/>
    <ellipse cx="-33.040000000000006" cy="-16.520000000000003" rx="11.8" ry="5.31" fill="#221913" transform="rotate(-18 -33.040000000000006 -16.520000000000003)"/>
    <ellipse cx="28.32" cy="-17.7" rx="11.8" ry="5.31" fill="#221913" transform="rotate(18 28.32 -17.7)"/>
    <path d="M -54.28 15.34 Q 0 68.44 56.64 12.98" fill="none" stroke="#221913" stroke-width="12.389999999999999" stroke-linecap="round"/>
    <path d="M -35.4 21.24 Q 0 44.84 36.58 20.060000000000002" fill="none" stroke="#fff7e8" stroke-width="4.72" stroke-linecap="round" opacity=".92"/>
    <circle cx="-61.36" cy="5.9" r="8.85" fill="#51aeb8" opacity=".32"/>
    <circle cx="59" cy="4.72" r="8.85" fill="#51aeb8" opacity=".32"/>
  </g>
</svg>