<?xml version="1.0" encoding="UTF-8"?>
<svg xmlns="http://www.w3.org/2000/svg" width="1080" height="1920" viewBox="0 0 1080 1920">
  <defs>
    <linearGradient id="paper-15" x1="0" y1="0" x2="1" y2="1">
      <stop offset="0" stop-color="#fff5dc"/>
      <stop offset=".54" stop-color="#fffdf5"/>
      <stop offset="1" stop-color="#ffe0a8"/>
    </linearGradient>
    <filter id="grain-15" x="-10%" y="-10%" width="120%" height="120%">
      <feTurbulence type="fractalNoise" baseFrequency=".82" numOctaves="3" stitchTiles="stitch"/>
      <feColorMatrix type="saturate" values="0"/>
      <feComponentTransfer><feFuncA type="table" tableValues="0 .045"/></feComponentTransfer>
    </filter>
  </defs>
  <rect width="1080" height="1920" fill="url(#paper-15)"/>
  <rect width="1080" height="1920" filter="url(#grain-15)" opacity=".55"/>
  <ellipse cx="540" cy="820" rx="430" ry="690" fill="#fffdf7" opacity=".42"/>
  <path d="M-80 1680 C130 1510 260 1760 420 1600 C560 1460 685 1660 850 1535 C960 1450 1040 1500 1160 1410 L1160 1980 L-80 1980 Z" fill="#ffe0a8" opacity=".42"/>
  <path d="M-90 65 C110 180 245 28 405 130 C560 228 700 78 860 142 C990 194 1060 108 1160 160 L1160 -80 L-90 -80 Z" fill="#ffe0a8" opacity=".34"/>
  
  <g transform="translate(72 1460) rotate(-4) scale(1.05)" opacity=".74">
    <path d="M0 44c0-25 10-42 32-52l12 18c-12 6-19 14-21 24h25v42H0z" fill="#e85d3f"/>
    <path d="M64 44c0-25 10-42 32-52l12 18c-12 6-19 14-21 24h25v42H64z" fill="#e85d3f"/>
  </g>
  <g transform="translate(875 114) rotate(6) scale(0.72)" opacity=".74">
    <path d="M0 44c0-25 10-42 32-52l12 18c-12 6-19 14-21 24h25v42H0z" fill="#51aeb8"/>
    <path d="M64 44c0-25 10-42 32-52l12 18c-12 6-19 14-21 24h25v42H64z" fill="#51aeb8"/>
  </g>
  <circle cx="860.7" cy="273.2" r="8.8" fill="#f6b51c" opacity="0.51"/>
<circle cx="999.1" cy="1721.7" r="12.0" fill="#e85d3f" opacity="0.34"/>
<circle cx="962.7" cy="236.6" r="16.1" fill="#51aeb8" opacity="0.32"/>
<circle cx="47.6" cy="1703.7" r="8.0" fill="#252525" opacity="0.50"/>
<circle cx="971.6" cy="1514.5" r="8.0" fill="#f6b51c" opacity="0.38"/>
<circle cx="1039.6" cy="241.0" r="8.1" fill="#e85d3f" opacity="0.38"/>
<circle cx="113.1" cy="274.0" r="11.0" fill="#51aeb8" opacity="0.40"/>
<circle cx="887.2" cy="274.2" r="5.8" fill="#252525" opacity="0.47"/>
<circle cx="105.7" cy="302.3" r="10.5" fill="#f6b51c" opacity="0.41"/>
<circle cx="989.3" cy="1543.4" r="9.2" fill="#e85d3f" opacity="0.60"/>
<circle cx="926.9" cy="1607.1" r="7.5" fill="#51aeb8" opacity="0.43"/>
<circle cx="118.3" cy="1735.2" r="6.0" fill="#252525" opacity="0.37"/>
<circle cx="897.8" cy="230.7" r="16.0" fill="#f6b51c" opacity="0.49"/>
<circle cx="1040.9" cy="1744.2" r="5.0" fill="#e85d3f" opacity="0.37"/>
<circle cx="946.1" cy="1733.7" r="12.5" fill="#51aeb8" opacity="0.51"/>
<circle cx="972.8" cy="1719.5" r="10.9" fill="#252525" opacity="0.50"/>
<circle cx="1006.9" cy="1565.0" r="9.2" fill="#f6b51c" opacity="0.43"/>
<circle cx="206.7" cy="1791.7" r="6.2" fill="#e85d3f" opacity="0.36"/>
<circle cx="936.8" cy="1652.9" r="10.8" fill="#51aeb8" opacity="0.30"/>
<circle cx="212.3" cy="1669.7" r="16.6" fill="#252525" opacity="0.49"/>
<circle cx="930.1" cy="1556.4" r="10.4" fill="#f6b51c" opacity="0.38"/>
<circle cx="955.7" cy="116.4" r="11.0" fill="#e85d3f" opacity="0.42"/>
<circle cx="948.3" cy="1717.6" r="8.8" fill="#51aeb8" opacity="0.57"/>
<circle cx="81.4" cy="115.5" r="16.2" fill="#252525" opacity="0.42"/>
<circle cx="77.2" cy="177.0" r="9.2" fill="#f6b51c" opacity="0.36"/>
<circle cx="92.9" cy="1633.5" r="11.2" fill="#e85d3f" opacity="0.53"/>
<circle cx="898.8" cy="1701.3" r="13.7" fill="#51aeb8" opacity="0.55"/>
<circle cx="129.1" cy="1742.8" r="7.0" fill="#252525" opacity="0.52"/>
<circle cx="1019.7" cy="1716.0" r="13.0" fill="#f6b51c" opacity="0.62"/>
<circle cx="937.0" cy="1619.3" r="11.8" fill="#e85d3f" opacity="0.42"/>
<circle cx="861.9" cy="280.1" r="7.9" fill="#51aeb8" opacity="0.37"/>
<circle cx="46.0" cy="1704.0" r="12.3" fill="#252525" opacity="0.41"/>
<circle cx="948.7" cy="175.3" r="7.1" fill="#f6b51c" opacity="0.56"/>
<circle cx="203.1" cy="1564.3" r="5.8" fill="#e85d3f" opacity="0.32"/>
<circle cx="77.6" cy="1620.0" r="12.9" fill="#51aeb8" opacity="0.42"/>
<circle cx="120.3" cy="282.1" r="5.8" fill="#252525" opacity="0.38"/>
<circle cx="87.7" cy="1578.7" r="9.7" fill="#f6b51c" opacity="0.45"/>
<circle cx="134.5" cy="209.9" r="14.0" fill="#e85d3f" opacity="0.42"/>
<circle cx="1012.7" cy="1754.1" r="7.8" fill="#51aeb8" opacity="0.60"/>
<circle cx="920.6" cy="124.2" r="14.0" fill="#252525" opacity="0.56"/>
<circle cx="997.4" cy="1790.9" r="15.0" fill="#f6b51c" opacity="0.53"/>
<circle cx="891.4" cy="71.9" r="12.6" fill="#e85d3f" opacity="0.39"/>
  
  <g transform="translate(1050 205) rotate(10)">
    <circle r="160" fill="#f6b51c" stroke="rgba(122,76,18,.22)" stroke-width="5.6000000000000005"/>
    <ellipse cx="-44.800000000000004" cy="-22.400000000000002" rx="16" ry="7.199999999999999" fill="#221913" transform="rotate(-18 -44.800000000000004 -22.400000000000002)"/>
    <ellipse cx="38.4" cy="-24" rx="16" ry="7.199999999999999" fill="#221913" transform="rotate(18 38.4 -24)"/>
    <path d="M -73.60000000000001 20.8 Q 0 92.8 76.8 17.6" fill="none" stroke="#221913" stroke-width="16.8" stroke-linecap="round"/>
    <path d="M -48 28.799999999999997 Q 0 60.8 49.6 27.200000000000003" fill="none" stroke="#fff7e8" stroke-width="6.4" stroke-linecap="round" opacity=".92"/>
    <circle cx="-83.2" cy="8" r="12" fill="#e85d3f" opacity=".32"/>
    <circle cx="80" cy="6.4" r="12" fill="#e85d3f" opacity=".32"/>
  </g>
  
  <g transform="translate(62 1604) rotate(-14)">
    <circle r="118" fill="#f6b51c" stroke="rgba(122,76,18,.22)" stroke-width="4.130000000000001"/>
    <ellipse cx="-33.040000000000006" cy="-16.520000000000003" rx="11.8" ry="5.31" fill="#221913" transform="rotate(-18 -33.040000000000006 -16.520000000000003)"/>
    <ellipse cx="28.32" cy="-17.7" rx="11.8" ry="5.31" fill="#221913" transform="rotate(18 28.32 -17.7)"/>
    <path d="M -54.28 15.34 Q 0 68.44 56.64 12.98" fill="none" stroke="#221913" stroke-width="12.389999999999999" stroke-linecap="round"/>
    <path d="M -35.4 21.24 Q 0 44.84 36.58 20.060000000000002" fill="none" stroke="#fff7e8" stroke-width="4.72" stroke-linecap="round" opacity=".92"/>
    <circle cx="-61.36" cy="5.9" r="8.85" fill="#51aeb8" opacity=".32"/>
    <circle cx="59" cy="4.72" r="8.85" fill="#51aeb8" opacity=".32"/>
  </g>
</svg>