<?xml version="1.0" encoding="UTF-8"?>
<svg xmlns="http://www.w3.org/2000/svg" width="1080" height="1920" viewBox="0 0 1080 1920">
  <defs>
    <linearGradient id="paper-13" x1="0" y1="0" x2="1" y2="1">
      <stop offset="0" stop-color="#faf2ff"/>
      <stop offset=".54" stop-color="#fffdf5"/>
      <stop offset="1" stop-color="#f5d5ec"/>
    </linearGradient>
    <filter id="grain-13" x="-10%" y="-10%" width="120%" height="120%">
      <feTurbulence type="fractalNoise" baseFrequency=".82" numOctaves="3" stitchTiles="stitch"/>
      <feColorMatrix type="saturate" values="0"/>
      <feComponentTransfer><feFuncA type="table" tableValues="0 .045"/></feComponentTransfer>
    </filter>
  </defs>
  <rect width="1080" height="1920" fill="url(#paper-13)"/>
  <rect width="1080" height="1920" filter="url(#grain-13)" opacity=".55"/>
  <ellipse cx="540" cy="820" rx="430" ry="690" fill="#fffdf7" opacity=".42"/>
  <path d="M-80 1680 C130 1510 260 1760 420 1600 C560 1460 685 1660 850 1535 C960 1450 1040 1500 1160 1410 L1160 1980 L-80 1980 Z" fill="#f5d5ec" opacity=".42"/>
  <path d="M-90 65 C110 180 245 28 405 130 C560 228 700 78 860 142 C990 194 1060 108 1160 160 L1160 -80 L-90 -80 Z" fill="#f5d5ec" opacity=".34"/>
  
  <g transform="translate(862 168) rotate(-8)" opacity=".72">
    <ellipse cx="0" cy="0" rx="84" ry="46" fill="#ec7457"/>
    <path d="M 21 29.900000000000002 l 25.2 25.3 l -46.2 -10.12 z" fill="#ec7457"/>
  </g>
  <g transform="translate(152 1508) rotate(10)" opacity=".72">
    <ellipse cx="0" cy="0" rx="72" ry="40" fill="#8a55b7"/>
    <path d="M 18 26 l 21.599999999999998 22 l -39.6 -8.8 z" fill="#8a55b7"/>
  </g>
  <circle cx="176.4" cy="188.3" r="15.0" fill="#ffd04a" opacity="0.41"/>
<circle cx="1016.6" cy="1804.1" r="8.9" fill="#8a55b7" opacity="0.52"/>
<circle cx="998.8" cy="1583.6" r="14.6" fill="#ec7457" opacity="0.61"/>
<circle cx="141.3" cy="253.5" r="5.0" fill="#252525" opacity="0.44"/>
<circle cx="192.2" cy="107.5" r="12.8" fill="#ffd04a" opacity="0.45"/>
<circle cx="975.5" cy="272.5" r="10.3" fill="#8a55b7" opacity="0.51"/>
<circle cx="199.1" cy="1828.6" r="10.8" fill="#ec7457" opacity="0.36"/>
<circle cx="1011.3" cy="188.6" r="6.0" fill="#252525" opacity="0.58"/>
<circle cx="961.9" cy="1799.1" r="7.5" fill="#ffd04a" opacity="0.60"/>
<circle cx="80.8" cy="1539.4" r="9.4" fill="#8a55b7" opacity="0.55"/>
<circle cx="891.8" cy="297.3" r="11.3" fill="#ec7457" opacity="0.38"/>
<circle cx="142.8" cy="1815.7" r="6.7" fill="#252525" opacity="0.40"/>
<circle cx="170.1" cy="1594.7" r="11.8" fill="#ffd04a" opacity="0.37"/>
<circle cx="122.0" cy="142.8" r="9.4" fill="#8a55b7" opacity="0.31"/>
<circle cx="66.2" cy="1705.3" r="12.4" fill="#ec7457" opacity="0.54"/>
<circle cx="108.7" cy="88.2" r="9.2" fill="#252525" opacity="0.54"/>
<circle cx="941.5" cy="240.0" r="7.4" fill="#ffd04a" opacity="0.48"/>
<circle cx="93.9" cy="1538.9" r="12.6" fill="#8a55b7" opacity="0.58"/>
<circle cx="121.8" cy="268.0" r="16.8" fill="#ec7457" opacity="0.58"/>
<circle cx="923.7" cy="187.9" r="16.9" fill="#252525" opacity="0.40"/>
<circle cx="879.0" cy="1830.1" r="6.3" fill="#ffd04a" opacity="0.37"/>
<circle cx="58.9" cy="1557.1" r="13.3" fill="#8a55b7" opacity="0.58"/>
<circle cx="1031.1" cy="1835.0" r="13.1" fill="#ec7457" opacity="0.34"/>
<circle cx="1042.7" cy="112.9" r="5.2" fill="#252525" opacity="0.34"/>
<circle cx="955.9" cy="1672.3" r="12.3" fill="#ffd04a" opacity="0.33"/>
<circle cx="72.6" cy="127.6" r="12.1" fill="#8a55b7" opacity="0.52"/>
<circle cx="1046.8" cy="186.8" r="7.5" fill="#ec7457" opacity="0.47"/>
<circle cx="982.2" cy="1537.3" r="13.4" fill="#252525" opacity="0.61"/>
<circle cx="890.2" cy="153.4" r="16.7" fill="#ffd04a" opacity="0.58"/>
<circle cx="932.1" cy="84.0" r="7.2" fill="#8a55b7" opacity="0.51"/>
<circle cx="159.1" cy="1708.0" r="12.2" fill="#ec7457" opacity="0.58"/>
<circle cx="898.4" cy="237.8" r="16.9" fill="#252525" opacity="0.53"/>
<circle cx="130.0" cy="86.7" r="8.7" fill="#ffd04a" opacity="0.35"/>
<circle cx="1028.7" cy="232.4" r="8.3" fill="#8a55b7" opacity="0.44"/>
<circle cx="174.3" cy="147.3" r="7.1" fill="#ec7457" opacity="0.54"/>
<circle cx="123.6" cy="1689.5" r="7.8" fill="#252525" opacity="0.48"/>
<circle cx="40.1" cy="60.1" r="9.5" fill="#ffd04a" opacity="0.59"/>
<circle cx="865.0" cy="1622.0" r="5.4" fill="#8a55b7" opacity="0.46"/>
<circle cx="170.9" cy="1822.7" r="16.0" fill="#ec7457" opacity="0.58"/>
<circle cx="131.8" cy="104.6" r="7.2" fill="#252525" opacity="0.40"/>
<circle cx="86.4" cy="1586.6" r="16.9" fill="#ffd04a" opacity="0.54"/>
<circle cx="82.5" cy="106.6" r="12.8" fill="#8a55b7" opacity="0.56"/>
  
  <g transform="translate(34 1650) rotate(-8)">
    <circle r="188" fill="#ffd04a" stroke="rgba(122,76,18,.22)" stroke-width="6.580000000000001"/>
    <ellipse cx="-52.64000000000001" cy="-26.320000000000004" rx="18.8" ry="8.459999999999999" fill="#221913" transform="rotate(-18 -52.64000000000001 -26.320000000000004)"/>
    <ellipse cx="45.12" cy="-28.2" rx="18.8" ry="8.459999999999999" fill="#221913" transform="rotate(18 45.12 -28.2)"/>
    <path d="M -86.48 24.44 Q 0 109.03999999999999 90.24 20.68" fill="none" stroke="#221913" stroke-width="19.74" stroke-linecap="round"/>
    <path d="M -56.4 33.839999999999996 Q 0 71.44 58.28 31.96" fill="none" stroke="#fff7e8" stroke-width="7.5200000000000005" stroke-linecap="round" opacity=".92"/>
    <circle cx="-97.76" cy="9.4" r="14.1" fill="#8a55b7" opacity=".32"/>
    <circle cx="94" cy="7.5200000000000005" r="14.1" fill="#8a55b7" opacity=".32"/>
  </g>
  
  <g transform="translate(1032 208) rotate(12)">
    <circle r="118" fill="#ffd04a" stroke="rgba(122,76,18,.22)" stroke-width="4.130000000000001"/>
    <ellipse cx="-33.040000000000006" cy="-16.520000000000003" rx="11.8" ry="5.31" fill="#221913" transform="rotate(-18 -33.040000000000006 -16.520000000000003)"/>
    <ellipse cx="28.32" cy="-17.7" rx="11.8" ry="5.31" fill="#221913" transform="rotate(18 28.32 -17.7)"/>
    <path d="M -54.28 15.34 Q 0 68.44 56.64 12.98" fill="none" stroke="#221913" stroke-width="12.389999999999999" stroke-linecap="round"/>
    <path d="M -35.4 21.24 Q 0 44.84 36.58 20.060000000000002" fill="none" stroke="#fff7e8" stroke-width="4.72" stroke-linecap="round" opacity=".92"/>
    <circle cx="-61.36" cy="5.9" r="8.85" fill="#ec7457" opacity=".32"/>
    <circle cx="59" cy="4.72" r="8.85" fill="#ec7457" opacity=".32"/>
  </g>
</svg>