<?xml version="1.0" encoding="UTF-8"?>
<svg xmlns="http://www.w3.org/2000/svg" width="1080" height="1920" viewBox="0 0 1080 1920">
  <defs>
    <linearGradient id="paper-28" x1="0" y1="0" x2="1" y2="1">
      <stop offset="0" stop-color="#faf2ff"/>
      <stop offset=".54" stop-color="#fffdf5"/>
      <stop offset="1" stop-color="#f5d5ec"/>
    </linearGradient>
    <filter id="grain-28" x="-10%" y="-10%" width="120%" height="120%">
      <feTurbulence type="fractalNoise" baseFrequency=".82" numOctaves="3" stitchTiles="stitch"/>
      <feColorMatrix type="saturate" values="0"/>
      <feComponentTransfer><feFuncA type="table" tableValues="0 .045"/></feComponentTransfer>
    </filter>
  </defs>
  <rect width="1080" height="1920" fill="url(#paper-28)"/>
  <rect width="1080" height="1920" filter="url(#grain-28)" opacity=".55"/>
  <ellipse cx="540" cy="820" rx="430" ry="690" fill="#fffdf7" opacity=".42"/>
  <path d="M-80 1680 C130 1510 260 1760 420 1600 C560 1460 685 1660 850 1535 C960 1450 1040 1500 1160 1410 L1160 1980 L-80 1980 Z" fill="#f5d5ec" opacity=".42"/>
  <path d="M-90 65 C110 180 245 28 405 130 C560 228 700 78 860 142 C990 194 1060 108 1160 160 L1160 -80 L-90 -80 Z" fill="#f5d5ec" opacity=".34"/>
  
  <g transform="translate(862 168) rotate(-8)" opacity=".72">
    <ellipse cx="0" cy="0" rx="84" ry="46" fill="#ec7457"/>
    <path d="M 21 29.900000000000002 l 25.2 25.3 l -46.2 -10.12 z" fill="#ec7457"/>
  </g>
  <g transform="translate(152 1508) rotate(10)" opacity=".72">
    <ellipse cx="0" cy="0" rx="72" ry="40" fill="#8a55b7"/>
    <path d="M 18 26 l 21.599999999999998 22 l -39.6 -8.8 z" fill="#8a55b7"/>
  </g>
  <circle cx="945.5" cy="1701.0" r="10.4" fill="#ffd04a" opacity="0.51"/>
<circle cx="53.3" cy="59.4" r="8.1" fill="#8a55b7" opacity="0.50"/>
<circle cx="180.7" cy="304.6" r="14.1" fill="#ec7457" opacity="0.31"/>
<circle cx="198.1" cy="115.4" r="15.0" fill="#252525" opacity="0.59"/>
<circle cx="915.1" cy="114.0" r="7.1" fill="#ffd04a" opacity="0.42"/>
<circle cx="149.7" cy="1649.8" r="11.7" fill="#8a55b7" opacity="0.36"/>
<circle cx="860.7" cy="253.7" r="6.4" fill="#ec7457" opacity="0.34"/>
<circle cx="103.1" cy="1543.6" r="10.4" fill="#252525" opacity="0.57"/>
<circle cx="970.6" cy="236.4" r="11.7" fill="#ffd04a" opacity="0.37"/>
<circle cx="84.3" cy="1734.5" r="14.3" fill="#8a55b7" opacity="0.56"/>
<circle cx="38.0" cy="282.1" r="12.8" fill="#ec7457" opacity="0.58"/>
<circle cx="53.4" cy="204.2" r="7.2" fill="#252525" opacity="0.35"/>
<circle cx="980.3" cy="1708.9" r="6.8" fill="#ffd04a" opacity="0.47"/>
<circle cx="108.3" cy="1522.6" r="6.5" fill="#8a55b7" opacity="0.60"/>
<circle cx="140.0" cy="1587.8" r="13.0" fill="#ec7457" opacity="0.50"/>
<circle cx="64.2" cy="154.4" r="15.9" fill="#252525" opacity="0.58"/>
<circle cx="862.4" cy="1820.2" r="15.2" fill="#ffd04a" opacity="0.46"/>
<circle cx="1011.9" cy="1785.2" r="6.7" fill="#8a55b7" opacity="0.43"/>
<circle cx="88.7" cy="107.8" r="7.6" fill="#ec7457" opacity="0.50"/>
<circle cx="878.1" cy="223.3" r="8.9" fill="#252525" opacity="0.29"/>
<circle cx="881.9" cy="117.5" r="13.4" fill="#ffd04a" opacity="0.28"/>
<circle cx="902.1" cy="1646.3" r="13.5" fill="#8a55b7" opacity="0.61"/>
<circle cx="885.1" cy="1614.7" r="10.7" fill="#ec7457" opacity="0.34"/>
<circle cx="95.9" cy="257.2" r="9.8" fill="#252525" opacity="0.56"/>
<circle cx="985.7" cy="1662.8" r="7.2" fill="#ffd04a" opacity="0.38"/>
<circle cx="129.5" cy="284.8" r="5.7" fill="#8a55b7" opacity="0.46"/>
<circle cx="55.1" cy="1648.9" r="6.0" fill="#ec7457" opacity="0.37"/>
<circle cx="919.4" cy="118.0" r="13.4" fill="#252525" opacity="0.43"/>
<circle cx="911.3" cy="1550.4" r="12.9" fill="#ffd04a" opacity="0.53"/>
<circle cx="968.8" cy="1751.0" r="5.9" fill="#8a55b7" opacity="0.38"/>
<circle cx="139.5" cy="268.4" r="15.4" fill="#ec7457" opacity="0.37"/>
<circle cx="935.3" cy="219.3" r="6.3" fill="#252525" opacity="0.36"/>
<circle cx="957.6" cy="251.2" r="14.9" fill="#ffd04a" opacity="0.57"/>
<circle cx="886.5" cy="1550.5" r="13.8" fill="#8a55b7" opacity="0.43"/>
<circle cx="946.3" cy="1543.1" r="14.6" fill="#ec7457" opacity="0.53"/>
<circle cx="193.6" cy="249.5" r="10.4" fill="#252525" opacity="0.58"/>
<circle cx="112.1" cy="1815.9" r="10.8" fill="#ffd04a" opacity="0.53"/>
<circle cx="33.8" cy="165.4" r="15.4" fill="#8a55b7" opacity="0.49"/>
<circle cx="149.9" cy="152.3" r="8.5" fill="#ec7457" opacity="0.59"/>
<circle cx="1019.6" cy="1604.2" r="10.2" fill="#252525" opacity="0.59"/>
<circle cx="204.0" cy="274.0" r="14.9" fill="#ffd04a" opacity="0.32"/>
<circle cx="1026.1" cy="221.0" r="11.2" fill="#8a55b7" opacity="0.32"/>
  
  <g transform="translate(34 1650) rotate(-8)">
    <circle r="188" fill="#ffd04a" stroke="rgba(122,76,18,.22)" stroke-width="6.580000000000001"/>
    <ellipse cx="-52.64000000000001" cy="-26.320000000000004" rx="18.8" ry="8.459999999999999" fill="#221913" transform="rotate(-18 -52.64000000000001 -26.320000000000004)"/>
    <ellipse cx="45.12" cy="-28.2" rx="18.8" ry="8.459999999999999" fill="#221913" transform="rotate(18 45.12 -28.2)"/>
    <path d="M -86.48 24.44 Q 0 109.03999999999999 90.24 20.68" fill="none" stroke="#221913" stroke-width="19.74" stroke-linecap="round"/>
    <path d="M -56.4 33.839999999999996 Q 0 71.44 58.28 31.96" fill="none" stroke="#fff7e8" stroke-width="7.5200000000000005" stroke-linecap="round" opacity=".92"/>
    <circle cx="-97.76" cy="9.4" r="14.1" fill="#8a55b7" opacity=".32"/>
    <circle cx="94" cy="7.5200000000000005" r="14.1" fill="#8a55b7" opacity=".32"/>
  </g>
  
  <g transform="translate(1032 208) rotate(12)">
    <circle r="118" fill="#ffd04a" stroke="rgba(122,76,18,.22)" stroke-width="4.130000000000001"/>
    <ellipse cx="-33.040000000000006" cy="-16.520000000000003" rx="11.8" ry="5.31" fill="#221913" transform="rotate(-18 -33.040000000000006 -16.520000000000003)"/>
    <ellipse cx="28.32" cy="-17.7" rx="11.8" ry="5.31" fill="#221913" transform="rotate(18 28.32 -17.7)"/>
    <path d="M -54.28 15.34 Q 0 68.44 56.64 12.98" fill="none" stroke="#221913" stroke-width="12.389999999999999" stroke-linecap="round"/>
    <path d="M -35.4 21.24 Q 0 44.84 36.58 20.060000000000002" fill="none" stroke="#fff7e8" stroke-width="4.72" stroke-linecap="round" opacity=".92"/>
    <circle cx="-61.36" cy="5.9" r="8.85" fill="#ec7457" opacity=".32"/>
    <circle cx="59" cy="4.72" r="8.85" fill="#ec7457" opacity=".32"/>
  </g>
</svg>