<?xml version="1.0" encoding="UTF-8"?>
<svg xmlns="http://www.w3.org/2000/svg" width="1080" height="1920" viewBox="0 0 1080 1920">
  <defs>
    <linearGradient id="paper-23" x1="0" y1="0" x2="1" y2="1">
      <stop offset="0" stop-color="#f3fae8"/>
      <stop offset=".54" stop-color="#fffdf5"/>
      <stop offset="1" stop-color="#dbeeb5"/>
    </linearGradient>
    <filter id="grain-23" x="-10%" y="-10%" width="120%" height="120%">
      <feTurbulence type="fractalNoise" baseFrequency=".82" numOctaves="3" stitchTiles="stitch"/>
      <feColorMatrix type="saturate" values="0"/>
      <feComponentTransfer><feFuncA type="table" tableValues="0 .045"/></feComponentTransfer>
    </filter>
  </defs>
  <rect width="1080" height="1920" fill="url(#paper-23)"/>
  <rect width="1080" height="1920" filter="url(#grain-23)" opacity=".55"/>
  <ellipse cx="540" cy="820" rx="430" ry="690" fill="#fffdf7" opacity=".42"/>
  <path d="M-80 1680 C130 1510 260 1760 420 1600 C560 1460 685 1660 850 1535 C960 1450 1040 1500 1160 1410 L1160 1980 L-80 1980 Z" fill="#dbeeb5" opacity=".42"/>
  <path d="M-90 65 C110 180 245 28 405 130 C560 228 700 78 860 142 C990 194 1060 108 1160 160 L1160 -80 L-90 -80 Z" fill="#dbeeb5" opacity=".34"/>
  <g transform="translate(874 148) rotate(-8)" opacity=".75"><line x1="0" y1="-34" x2="0" y2="-64" stroke="#6f9f3a" stroke-width="10" stroke-linecap="round" transform="rotate(-80)"/><line x1="0" y1="-34" x2="0" y2="-64" stroke="#6f9f3a" stroke-width="10" stroke-linecap="round" transform="rotate(-48)"/><line x1="0" y1="-34" x2="0" y2="-64" stroke="#6f9f3a" stroke-width="10" stroke-linecap="round" transform="rotate(-16)"/><line x1="0" y1="-34" x2="0" y2="-64" stroke="#6f9f3a" stroke-width="10" stroke-linecap="round" transform="rotate(16)"/><line x1="0" y1="-34" x2="0" y2="-64" stroke="#6f9f3a" stroke-width="10" stroke-linecap="round" transform="rotate(48)"/><line x1="0" y1="-34" x2="0" y2="-64" stroke="#6f9f3a" stroke-width="10" stroke-linecap="round" transform="rotate(80)"/></g><g transform="translate(175 1512) rotate(12)" opacity=".75"><line x1="0" y1="-34" x2="0" y2="-64" stroke="#e76547" stroke-width="10" stroke-linecap="round" transform="rotate(-80)"/><line x1="0" y1="-34" x2="0" y2="-64" stroke="#e76547" stroke-width="10" stroke-linecap="round" transform="rotate(-48)"/><line x1="0" y1="-34" x2="0" y2="-64" stroke="#e76547" stroke-width="10" stroke-linecap="round" transform="rotate(-16)"/><line x1="0" y1="-34" x2="0" y2="-64" stroke="#e76547" stroke-width="10" stroke-linecap="round" transform="rotate(16)"/><line x1="0" y1="-34" x2="0" y2="-64" stroke="#e76547" stroke-width="10" stroke-linecap="round" transform="rotate(48)"/><line x1="0" y1="-34" x2="0" y2="-64" stroke="#e76547" stroke-width="10" stroke-linecap="round" transform="rotate(80)"/></g>
  <circle cx="1029.8" cy="1586.0" r="7.9" fill="#f6c837" opacity="0.59"/>
<circle cx="97.1" cy="215.5" r="12.4" fill="#6f9f3a" opacity="0.62"/>
<circle cx="176.1" cy="1754.2" r="10.2" fill="#e76547" opacity="0.52"/>
<circle cx="52.5" cy="1760.5" r="7.7" fill="#252525" opacity="0.43"/>
<circle cx="951.4" cy="1585.1" r="13.0" fill="#f6c837" opacity="0.43"/>
<circle cx="84.3" cy="114.8" r="11.2" fill="#6f9f3a" opacity="0.52"/>
<circle cx="148.9" cy="1681.0" r="11.9" fill="#e76547" opacity="0.57"/>
<circle cx="128.5" cy="1591.2" r="16.9" fill="#252525" opacity="0.35"/>
<circle cx="199.0" cy="165.6" r="10.3" fill="#f6c837" opacity="0.34"/>
<circle cx="83.2" cy="1559.5" r="8.6" fill="#6f9f3a" opacity="0.44"/>
<circle cx="877.3" cy="1706.5" r="16.3" fill="#e76547" opacity="0.29"/>
<circle cx="1041.9" cy="231.7" r="15.0" fill="#252525" opacity="0.60"/>
<circle cx="28.9" cy="1670.8" r="8.5" fill="#f6c837" opacity="0.32"/>
<circle cx="176.2" cy="90.6" r="11.5" fill="#6f9f3a" opacity="0.62"/>
<circle cx="947.4" cy="1517.0" r="12.8" fill="#e76547" opacity="0.40"/>
<circle cx="79.1" cy="215.7" r="5.6" fill="#252525" opacity="0.34"/>
<circle cx="56.7" cy="273.3" r="16.6" fill="#f6c837" opacity="0.58"/>
<circle cx="919.9" cy="1813.1" r="16.7" fill="#6f9f3a" opacity="0.48"/>
<circle cx="868.4" cy="244.5" r="10.7" fill="#e76547" opacity="0.53"/>
<circle cx="956.6" cy="1606.6" r="15.5" fill="#252525" opacity="0.55"/>
<circle cx="112.3" cy="1781.7" r="15.0" fill="#f6c837" opacity="0.43"/>
<circle cx="1025.0" cy="1726.6" r="13.4" fill="#6f9f3a" opacity="0.49"/>
<circle cx="997.1" cy="106.6" r="15.5" fill="#e76547" opacity="0.45"/>
<circle cx="966.1" cy="125.7" r="12.2" fill="#252525" opacity="0.37"/>
<circle cx="912.4" cy="173.1" r="8.9" fill="#f6c837" opacity="0.48"/>
<circle cx="173.9" cy="232.4" r="7.9" fill="#6f9f3a" opacity="0.59"/>
<circle cx="45.0" cy="252.4" r="14.5" fill="#e76547" opacity="0.52"/>
<circle cx="877.0" cy="103.9" r="5.4" fill="#252525" opacity="0.49"/>
<circle cx="967.6" cy="191.5" r="10.1" fill="#f6c837" opacity="0.43"/>
<circle cx="956.6" cy="103.0" r="6.4" fill="#6f9f3a" opacity="0.42"/>
<circle cx="914.7" cy="1543.8" r="14.4" fill="#e76547" opacity="0.55"/>
<circle cx="154.3" cy="1515.0" r="5.8" fill="#252525" opacity="0.30"/>
<circle cx="63.7" cy="279.7" r="12.8" fill="#f6c837" opacity="0.38"/>
<circle cx="38.5" cy="1835.0" r="8.0" fill="#6f9f3a" opacity="0.55"/>
<circle cx="71.0" cy="1572.7" r="12.1" fill="#e76547" opacity="0.31"/>
<circle cx="938.9" cy="1631.0" r="9.6" fill="#252525" opacity="0.32"/>
<circle cx="88.1" cy="1826.2" r="10.4" fill="#f6c837" opacity="0.55"/>
<circle cx="992.2" cy="240.2" r="12.1" fill="#6f9f3a" opacity="0.59"/>
<circle cx="862.2" cy="282.2" r="11.0" fill="#e76547" opacity="0.36"/>
<circle cx="105.7" cy="202.5" r="5.2" fill="#252525" opacity="0.53"/>
<circle cx="933.5" cy="137.0" r="7.6" fill="#f6c837" opacity="0.51"/>
<circle cx="156.9" cy="182.9" r="11.8" fill="#6f9f3a" opacity="0.40"/>
  
  <g transform="translate(1050 205) rotate(10)">
    <circle r="160" fill="#f6c837" stroke="rgba(122,76,18,.22)" stroke-width="5.6000000000000005"/>
    <ellipse cx="-44.800000000000004" cy="-22.400000000000002" rx="16" ry="7.199999999999999" fill="#221913" transform="rotate(-18 -44.800000000000004 -22.400000000000002)"/>
    <ellipse cx="38.4" cy="-24" rx="16" ry="7.199999999999999" fill="#221913" transform="rotate(18 38.4 -24)"/>
    <path d="M -73.60000000000001 20.8 Q 0 92.8 76.8 17.6" fill="none" stroke="#221913" stroke-width="16.8" stroke-linecap="round"/>
    <path d="M -48 28.799999999999997 Q 0 60.8 49.6 27.200000000000003" fill="none" stroke="#fff7e8" stroke-width="6.4" stroke-linecap="round" opacity=".92"/>
    <circle cx="-83.2" cy="8" r="12" fill="#6f9f3a" opacity=".32"/>
    <circle cx="80" cy="6.4" r="12" fill="#6f9f3a" opacity=".32"/>
  </g>
  
  <g transform="translate(62 1604) rotate(-14)">
    <circle r="118" fill="#f6c837" stroke="rgba(122,76,18,.22)" stroke-width="4.130000000000001"/>
    <ellipse cx="-33.040000000000006" cy="-16.520000000000003" rx="11.8" ry="5.31" fill="#221913" transform="rotate(-18 -33.040000000000006 -16.520000000000003)"/>
    <ellipse cx="28.32" cy="-17.7" rx="11.8" ry="5.31" fill="#221913" transform="rotate(18 28.32 -17.7)"/>
    <path d="M -54.28 15.34 Q 0 68.44 56.64 12.98" fill="none" stroke="#221913" stroke-width="12.389999999999999" stroke-linecap="round"/>
    <path d="M -35.4 21.24 Q 0 44.84 36.58 20.060000000000002" fill="none" stroke="#fff7e8" stroke-width="4.72" stroke-linecap="round" opacity=".92"/>
    <circle cx="-61.36" cy="5.9" r="8.85" fill="#e76547" opacity=".32"/>
    <circle cx="59" cy="4.72" r="8.85" fill="#e76547" opacity=".32"/>
  </g>
</svg>